<svg xmlns="http://www.w3.org/2000/svg" xmlns:xlink="http://www.w3.org/1999/xlink" width="1248" zoomAndPan="magnify" viewBox="0 0 936 755.999995" height="1008" preserveAspectRatio="xMidYMid meet" version="1.0"><defs><clipPath id="ade430778a"><path d="M 443 13.109375 L 493 13.109375 L 493 135 L 443 135 Z M 443 13.109375 " clip-rule="nonzero"/></clipPath><clipPath id="ed841402ab"><path d="M 711 353 L 832.859375 353 L 832.859375 403 L 711 403 Z M 711 353 " clip-rule="nonzero"/></clipPath><clipPath id="44473da9af"><path d="M 443 621 L 493 621 L 493 742.859375 L 443 742.859375 Z M 443 621 " clip-rule="nonzero"/></clipPath><clipPath id="3489afbceb"><path d="M 103.109375 353 L 225 353 L 225 403 L 103.109375 403 Z M 103.109375 353 " clip-rule="nonzero"/></clipPath></defs><rect x="-93.6" width="1123.2" fill="#ffffff" y="-75.599999" height="907.199994" fill-opacity="1"/><rect x="-93.6" width="1123.2" fill="#ffffff" y="-75.599999" height="907.199994" fill-opacity="1"/><rect x="-93.6" width="1123.2" fill="#ffffff" y="-75.599999" height="907.199994" fill-opacity="1"/><path fill="#ffcc00" d="M 653.953125 378.210938 C 653.953125 381.25 653.878906 384.289062 653.730469 387.324219 C 653.582031 390.359375 653.359375 393.390625 653.058594 396.414062 C 652.761719 399.441406 652.390625 402.457031 651.945312 405.464844 C 651.5 408.472656 650.980469 411.464844 650.386719 414.445312 C 649.792969 417.425781 649.125 420.390625 648.386719 423.339844 C 647.648438 426.289062 646.839844 429.21875 645.957031 432.128906 C 645.074219 435.035156 644.121094 437.921875 643.097656 440.785156 C 642.074219 443.644531 640.980469 446.480469 639.816406 449.289062 C 638.652344 452.097656 637.421875 454.875 636.121094 457.625 C 634.820312 460.371094 633.457031 463.085938 632.023438 465.765625 C 630.589844 468.449219 629.09375 471.089844 627.53125 473.699219 C 625.964844 476.304688 624.339844 478.875 622.652344 481.402344 C 620.964844 483.929688 619.214844 486.414062 617.402344 488.855469 C 615.59375 491.296875 613.722656 493.691406 611.792969 496.042969 C 609.867188 498.390625 607.882812 500.691406 605.839844 502.945312 C 603.796875 505.195312 601.703125 507.398438 599.554688 509.546875 C 597.402344 511.695312 595.203125 513.792969 592.949219 515.832031 C 590.699219 517.875 588.398438 519.859375 586.046875 521.789062 C 583.699219 523.714844 581.300781 525.585938 578.859375 527.398438 C 576.417969 529.207031 573.933594 530.957031 571.40625 532.644531 C 568.878906 534.335938 566.3125 535.960938 563.703125 537.523438 C 561.097656 539.085938 558.453125 540.585938 555.773438 542.015625 C 553.09375 543.449219 550.378906 544.816406 547.628906 546.117188 C 544.882812 547.414062 542.101562 548.648438 539.296875 549.808594 C 536.488281 550.972656 533.652344 552.066406 530.789062 553.089844 C 527.925781 554.113281 525.042969 555.070312 522.132812 555.949219 C 519.222656 556.832031 516.296875 557.644531 513.347656 558.382812 C 510.398438 559.121094 507.433594 559.785156 504.453125 560.378906 C 501.472656 560.972656 498.476562 561.492188 495.46875 561.9375 C 492.464844 562.382812 489.445312 562.757812 486.421875 563.054688 C 483.398438 563.351562 480.367188 563.574219 477.332031 563.726562 C 474.292969 563.875 471.257812 563.949219 468.214844 563.949219 C 465.175781 563.949219 462.140625 563.875 459.101562 563.726562 C 456.066406 563.574219 453.035156 563.351562 450.011719 563.054688 C 446.984375 562.757812 443.96875 562.382812 440.964844 561.9375 C 437.957031 561.492188 434.960938 560.972656 431.980469 560.378906 C 429 559.785156 426.035156 559.121094 423.085938 558.382812 C 420.136719 557.644531 417.207031 556.832031 414.300781 555.949219 C 411.390625 555.070312 408.503906 554.113281 405.644531 553.089844 C 402.78125 552.066406 399.945312 550.972656 397.136719 549.808594 C 394.328125 548.648438 391.550781 547.414062 388.804688 546.117188 C 386.054688 544.816406 383.339844 543.449219 380.660156 542.015625 C 377.980469 540.582031 375.335938 539.085938 372.726562 537.523438 C 370.121094 535.960938 367.554688 534.335938 365.027344 532.644531 C 362.5 530.957031 360.015625 529.207031 357.574219 527.398438 C 355.132812 525.585938 352.734375 523.714844 350.386719 521.789062 C 348.035156 519.859375 345.734375 517.875 343.480469 515.832031 C 341.230469 513.792969 339.027344 511.695312 336.878906 509.546875 C 334.730469 507.398438 332.636719 505.195312 330.59375 502.945312 C 328.550781 500.691406 326.566406 498.390625 324.640625 496.042969 C 322.710938 493.691406 320.839844 491.296875 319.03125 488.855469 C 317.21875 486.414062 315.46875 483.929688 313.78125 481.402344 C 312.09375 478.875 310.464844 476.304688 308.902344 473.699219 C 307.339844 471.089844 305.84375 468.449219 304.410156 465.765625 C 302.976562 463.085938 301.609375 460.371094 300.3125 457.625 C 299.011719 454.875 297.78125 452.097656 296.617188 449.289062 C 295.453125 446.480469 294.359375 443.644531 293.335938 440.785156 C 292.3125 437.921875 291.359375 435.035156 290.476562 432.128906 C 289.59375 429.21875 288.78125 426.289062 288.042969 423.339844 C 287.304688 420.390625 286.640625 417.425781 286.046875 414.445312 C 285.453125 411.464844 284.933594 408.472656 284.488281 405.464844 C 284.042969 402.457031 283.671875 399.441406 283.371094 396.414062 C 283.074219 393.390625 282.851562 390.359375 282.703125 387.324219 C 282.554688 384.289062 282.476562 381.25 282.476562 378.210938 C 282.476562 375.171875 282.554688 372.132812 282.703125 369.097656 C 282.851562 366.0625 283.074219 363.03125 283.371094 360.003906 C 283.671875 356.980469 284.042969 353.964844 284.488281 350.957031 C 284.933594 347.949219 285.453125 344.957031 286.046875 341.976562 C 286.640625 338.992188 287.304688 336.027344 288.042969 333.078125 C 288.78125 330.132812 289.59375 327.203125 290.476562 324.292969 C 291.359375 321.386719 292.3125 318.5 293.335938 315.636719 C 294.359375 312.773438 295.453125 309.941406 296.617188 307.132812 C 297.78125 304.324219 299.011719 301.546875 300.3125 298.796875 C 301.609375 296.050781 302.976562 293.335938 304.410156 290.652344 C 305.84375 287.972656 307.339844 285.328125 308.902344 282.722656 C 310.464844 280.113281 312.09375 277.546875 313.78125 275.019531 C 315.46875 272.492188 317.21875 270.007812 319.03125 267.566406 C 320.839844 265.125 322.710938 262.730469 324.640625 260.378906 C 326.566406 258.03125 328.550781 255.730469 330.59375 253.476562 C 332.636719 251.222656 334.730469 249.023438 336.878906 246.875 C 339.027344 244.722656 341.230469 242.628906 343.480469 240.585938 C 345.734375 238.546875 348.035156 236.5625 350.386719 234.632812 C 352.734375 232.703125 355.132812 230.835938 357.574219 229.023438 C 360.015625 227.214844 362.5 225.464844 365.027344 223.773438 C 367.554688 222.085938 370.121094 220.460938 372.726562 218.898438 C 375.335938 217.335938 377.980469 215.835938 380.660156 214.402344 C 383.339844 212.972656 386.054688 211.605469 388.804688 210.304688 C 391.550781 209.003906 394.328125 207.773438 397.136719 206.609375 C 399.945312 205.449219 402.78125 204.355469 405.644531 203.328125 C 408.503906 202.304688 411.390625 201.351562 414.300781 200.46875 C 417.207031 199.585938 420.136719 198.777344 423.085938 198.039062 C 426.035156 197.300781 429 196.632812 431.980469 196.042969 C 434.960938 195.449219 437.957031 194.929688 440.960938 194.484375 C 443.96875 194.035156 446.984375 193.664062 450.011719 193.367188 C 453.035156 193.070312 456.066406 192.84375 459.101562 192.695312 C 462.140625 192.546875 465.175781 192.472656 468.214844 192.472656 C 471.257812 192.472656 474.292969 192.546875 477.332031 192.695312 C 480.367188 192.84375 483.398438 193.070312 486.421875 193.367188 C 489.445312 193.664062 492.464844 194.035156 495.46875 194.484375 C 498.476562 194.929688 501.46875 195.449219 504.453125 196.042969 C 507.433594 196.632812 510.398438 197.300781 513.347656 198.039062 C 516.296875 198.777344 519.222656 199.585938 522.132812 200.46875 C 525.042969 201.351562 527.925781 202.304688 530.789062 203.328125 C 533.652344 204.355469 536.488281 205.449219 539.296875 206.609375 C 542.101562 207.773438 544.882812 209.003906 547.628906 210.304688 C 550.378906 211.605469 553.09375 212.972656 555.773438 214.402344 C 558.453125 215.835938 561.097656 217.335938 563.703125 218.898438 C 566.3125 220.460938 568.878906 222.085938 571.40625 223.773438 C 573.933594 225.464844 576.417969 227.214844 578.859375 229.023438 C 581.300781 230.835938 583.699219 232.703125 586.046875 234.632812 C 588.398438 236.5625 590.699219 238.546875 592.949219 240.585938 C 595.203125 242.628906 597.402344 244.722656 599.554688 246.875 C 601.703125 249.023438 603.796875 251.222656 605.839844 253.476562 C 607.882812 255.730469 609.867188 258.03125 611.792969 260.378906 C 613.722656 262.730469 615.59375 265.125 617.402344 267.566406 C 619.214844 270.007812 620.964844 272.492188 622.652344 275.019531 C 624.339844 277.546875 625.964844 280.113281 627.53125 282.722656 C 629.09375 285.328125 630.589844 287.972656 632.023438 290.652344 C 633.457031 293.335938 634.820312 296.050781 636.121094 298.796875 C 637.421875 301.546875 638.652344 304.324219 639.816406 307.132812 C 640.980469 309.941406 642.074219 312.773438 643.097656 315.636719 C 644.121094 318.5 645.074219 321.386719 645.957031 324.292969 C 646.839844 327.203125 647.648438 330.132812 648.386719 333.078125 C 649.125 336.027344 649.792969 338.992188 650.386719 341.976562 C 650.980469 344.957031 651.5 347.949219 651.945312 350.957031 C 652.390625 353.964844 652.761719 356.980469 653.058594 360.003906 C 653.359375 363.03125 653.582031 366.0625 653.730469 369.097656 C 653.878906 372.132812 653.953125 375.171875 653.953125 378.210938 Z M 653.953125 378.210938 " fill-opacity="1" fill-rule="nonzero"/><g clip-path="url(#ade430778a)"><path fill="#ffcc00" d="M 468.214844 13.363281 C 454.738281 13.363281 443.890625 26.378906 443.890625 42.550781 L 443.890625 105.792969 C 443.890625 121.960938 454.738281 134.980469 468.214844 134.980469 C 481.691406 134.980469 492.539062 121.960938 492.539062 105.792969 L 492.539062 42.550781 C 492.539062 26.378906 481.691406 13.363281 468.214844 13.363281 Z M 468.214844 13.363281 " fill-opacity="1" fill-rule="nonzero"/></g><path fill="#ffcc00" d="M 726.203125 120.226562 C 716.675781 110.695312 699.800781 112.230469 688.367188 123.664062 L 643.648438 168.382812 C 632.214844 179.816406 630.679688 196.691406 640.207031 206.222656 C 649.734375 215.75 666.613281 214.214844 678.046875 202.78125 L 722.765625 158.0625 C 734.199219 146.628906 735.734375 129.753906 726.203125 120.226562 Z M 726.203125 120.226562 " fill-opacity="1" fill-rule="nonzero"/><g clip-path="url(#ed841402ab)"><path fill="#ffcc00" d="M 833.066406 378.214844 C 833.066406 364.738281 820.050781 353.890625 803.878906 353.890625 L 740.636719 353.890625 C 724.46875 353.890625 711.449219 364.738281 711.449219 378.214844 C 711.449219 391.691406 724.46875 402.539062 740.636719 402.539062 L 803.878906 402.539062 C 820.050781 402.539062 833.066406 391.691406 833.066406 378.214844 Z M 833.066406 378.214844 " fill-opacity="1" fill-rule="nonzero"/></g><path fill="#ffcc00" d="M 726.203125 636.203125 C 735.734375 626.675781 734.199219 609.800781 722.765625 598.367188 L 678.046875 553.648438 C 666.613281 542.214844 649.734375 540.679688 640.207031 550.207031 C 630.679688 559.734375 632.214844 576.613281 643.648438 588.046875 L 688.367188 632.765625 C 699.800781 644.199219 716.675781 645.734375 726.203125 636.203125 Z M 726.203125 636.203125 " fill-opacity="1" fill-rule="nonzero"/><g clip-path="url(#44473da9af)"><path fill="#ffcc00" d="M 468.214844 743.066406 C 481.691406 743.066406 492.539062 730.050781 492.539062 713.878906 L 492.539062 650.636719 C 492.539062 634.46875 481.691406 621.449219 468.214844 621.449219 C 454.738281 621.449219 443.890625 634.46875 443.890625 650.636719 L 443.890625 713.878906 C 443.890625 730.050781 454.738281 743.066406 468.214844 743.066406 Z M 468.214844 743.066406 " fill-opacity="1" fill-rule="nonzero"/></g><path fill="#ffcc00" d="M 210.226562 636.203125 C 219.753906 645.734375 236.628906 644.199219 248.0625 632.765625 L 292.78125 588.046875 C 304.214844 576.613281 305.75 559.734375 296.222656 550.207031 C 286.691406 540.679688 269.816406 542.214844 258.382812 553.648438 L 213.664062 598.367188 C 202.230469 609.800781 200.695312 626.675781 210.226562 636.203125 Z M 210.226562 636.203125 " fill-opacity="1" fill-rule="nonzero"/><g clip-path="url(#3489afbceb)"><path fill="#ffcc00" d="M 103.363281 378.214844 C 103.363281 391.691406 116.378906 402.539062 132.550781 402.539062 L 195.792969 402.539062 C 211.960938 402.539062 224.980469 391.691406 224.980469 378.214844 C 224.980469 364.738281 211.960938 353.890625 195.792969 353.890625 L 132.550781 353.890625 C 116.378906 353.890625 103.363281 364.738281 103.363281 378.214844 Z M 103.363281 378.214844 " fill-opacity="1" fill-rule="nonzero"/></g><path fill="#ffcc00" d="M 210.226562 120.226562 C 200.695312 129.753906 202.230469 146.628906 213.664062 158.0625 L 258.382812 202.78125 C 269.816406 214.214844 286.691406 215.75 296.222656 206.222656 C 305.75 196.691406 304.214844 179.816406 292.78125 168.382812 L 248.0625 123.664062 C 236.628906 112.230469 219.753906 110.695312 210.226562 120.222656 Z M 210.226562 120.226562 " fill-opacity="1" fill-rule="nonzero"/></svg>